<svg xmlns="http://www.w3.org/2000/svg" version="1.1" xmlns:xlink="http://www.w3.org/1999/xlink" xmlns:svgjs="http://svgjs.dev/svgjs" width="2000" height="484" viewBox="0 0 2000 484"><g transform="matrix(1,0,0,1,-1.2121212121213603,0.867723181967051)"><svg viewBox="0 0 396 96" data-background-color="#000000" preserveAspectRatio="xMidYMid meet" height="484" width="2000" xmlns="http://www.w3.org/2000/svg" xmlns:xlink="http://www.w3.org/1999/xlink"><g id="tight-bounds" transform="matrix(1,0,0,1,0.24000000000003752,-0.17211038320007788)"><svg viewBox="0 0 395.5199999999999 96.34422076640016" height="96.34422076640016" width="395.5199999999999"><g><svg viewBox="0 0 740.9387265960929 180.48433517786557" height="96.34422076640016" width="395.5199999999999"><g><rect width="16.195287170322214" height="180.48433517786557" x="286.8273997128854" y="0" fill="#7b0323" opacity="1" stroke-width="0" stroke="transparent" fill-opacity="1" class="rect-yte-0" data-fill-palette-color="primary" rx="1%" id="yte-0" data-palette-color="#7b0323"></rect></g><g transform="matrix(1,0,0,1,345.418726596093,0.44896600790512764)"><svg viewBox="0 0 395.52 179.58640316205532" height="179.58640316205532" width="395.52"><g id="textblocktransform"><svg viewBox="0 0 395.52 179.58640316205532" height="179.58640316205532" width="395.52" id="textblock"><g><svg viewBox="0 0 395.52 179.58640316205532" height="179.58640316205532" width="395.52"><g transform="matrix(1,0,0,1,0,0)"><svg width="395.52" viewBox="2 -33.95 101.19 45.95" height="179.58640316205532" data-palette-color="#7b0323"><path d="M34.9-29.9L32.25-29.9 32.25-0.75Q32.25 0 31.5 0L31.5 0 27.85 0Q27.1 0 26.7-0.6L26.7-0.6 9.75-25.65 9.75-3.95 13.9-3.95Q14.65-3.95 14.65-3.2L14.65-3.2 14.65-0.75Q14.65 0 13.9 0L13.9 0 2.75 0Q2 0 2-0.75L2-0.75 2-3.2Q2-3.95 2.75-3.95L2.75-3.95 5.4-3.95 5.4-29.9 2.75-29.9Q2-29.9 2-30.65L2-30.65 2-33.2Q2-33.95 2.75-33.95L2.75-33.95 10.1-33.95Q10.8-33.95 11.25-33.3L11.25-33.3 27.9-8 27.9-29.9 25.25-29.9Q24.5-29.9 24.5-30.65L24.5-30.65 24.5-33.2Q24.5-33.95 25.25-33.95L25.25-33.95 34.9-33.95Q35.65-33.95 35.65-33.2L35.65-33.2 35.65-30.65Q35.65-29.9 34.9-29.9L34.9-29.9ZM42.6 1.9L42.6 1.9 42.6-29.9 39.95-29.9Q39.2-29.9 39.2-30.65L39.2-30.65 39.2-33.2Q39.2-33.95 39.95-33.95L39.95-33.95 50.85-33.95Q51.6-33.95 51.6-33.2L51.6-33.2 51.6-30.65Q51.6-29.9 50.85-29.9L50.85-29.9 48.2-29.9 48.2 2.1Q48.2 12 39.05 12L39.05 12Q35.6 12 33.4 10.95L33.4 10.95Q33.05 10.8 33.05 10.53 33.05 10.25 33.15 10L33.15 10 34.05 7.4Q34.3 6.65 34.95 6.9L34.95 6.9Q36.65 7.55 38.62 7.55 40.6 7.55 41.6 6.25 42.6 4.95 42.6 1.9ZM64.39-0.75L64.39-0.75 57.2-29.9 54.59-29.9Q53.84-29.9 53.84-30.65L53.84-30.65 53.84-33.2Q53.84-33.95 54.59-33.95L54.59-33.95 67.09-33.95Q67.84-33.95 67.84-33.2L67.84-33.2 67.84-30.65Q67.84-29.9 67.09-29.9L67.09-29.9 63.55-29.9 68.89-6.65 76.19-33.25Q76.39-33.95 77.14-33.95L77.14-33.95 81.25-33.95Q82-33.95 82.19-33.25L82.19-33.25 89.44-6.5 95.19-29.9 91.9-29.9Q91.15-29.9 91.15-30.65L91.15-30.65 91.15-33.2Q91.15-33.95 91.9-33.95L91.9-33.95 102.44-33.95Q103.19-33.95 103.19-33.2L103.19-33.2 103.19-30.65Q103.19-29.9 102.44-29.9L102.44-29.9 99.8-29.9 92.09-0.75Q91.9 0 91.15 0L91.15 0 86.44 0Q85.69 0 85.5-0.7L85.5-0.7 78.5-25.6 71.8-0.7Q71.59 0 70.84 0L70.84 0 65.34 0Q64.59 0 64.39-0.75Z" opacity="1" transform="matrix(1,0,0,1,0,0)" fill="#7b0323" class="wordmark-text-0" data-fill-palette-color="primary" id="text-0"></path></svg></g></svg></g></svg></g></svg></g><g transform="matrix(1,0,0,1,0,11.954861059173453)"><svg viewBox="0 0 244.43135999999998 156.57461305951867" height="156.57461305951867" width="244.43135999999998"><g><svg xmlns="http://www.w3.org/2000/svg" xmlns:xlink="http://www.w3.org/1999/xlink" version="1.1" x="0" y="0" viewBox="111.7 20.88487259589038 92.91010367325576 59.51512740410963" enable-background="new 109 0 100 100" xml:space="preserve" height="156.57461305951867" width="244.43135999999998" class="icon-icon-0" data-fill-palette-color="accent" id="icon-0"><g fill="#9c7945" data-fill-palette-color="accent"><path d="M138.2 33.6C142.1 31.9 141.1 29.4 142.8 28.5 143.9 27.9 144.7 28.8 145.4 29 145.3 29.4 145.3 29.8 145.2 30.3 144.9 35.8 149.1 40.5 154.6 40.8S164.8 36.9 165.1 31.4 161.2 21.2 155.7 20.9C152 20.7 148.7 22.5 146.8 25.3 146.3 24.3 145.3 22.8 143.7 22.3 140.9 21.4 137.7 22.7 136 24.9S134.3 31.5 129.6 32.5C127.6 33 134.7 35.2 138.2 33.6" fill="#9c7945" data-fill-palette-color="accent"></path><path d="M176.9 67.4C176.9 64.4 174.6 63 171.7 63H155.8L149 44.7C148 41.5 145 39.1 141.4 39.1 140.1 39.1 138.9 39.4 137.8 40 123.3 47.3 114.9 60.7 111.7 80.4H130.7C131.2 72.1 132.7 62.4 139.5 56.6L147.3 68.3C148.2 70 150 71.3 152 71.3H171.6C174.7 71.2 176.9 70.4 176.9 67.4" fill="#9c7945" data-fill-palette-color="accent"></path></g><path d="M181.5 76.3C181.1 75.5 179.2 72.3 175.3 72.3 170.9 72.3 169.1 76.4 169 76.5 168.9 76.8 168.9 77.2 169.1 77.4 169.3 77.7 169.6 77.9 169.9 77.9H180.6C181.2 77.9 181.6 77.5 181.6 76.9 181.7 76.7 181.6 76.4 181.5 76.3" fill="#9c7945" data-fill-palette-color="accent"></path><path d="M202.5 28.5C200.7 27.7 198.7 28.6 197.9 30.4L182.8 65.8C182 67.6 182.9 69.6 184.7 70.4 185.1 70.6 185.6 70.7 186.1 70.7 187.5 70.7 188.8 69.9 189.3 68.6L192 62.2 197.1 72.8H190C188.6 72.8 187.5 73.9 187.5 75.3S188.6 77.8 190 77.8H201.1C202 77.8 202.8 77.4 203.2 76.6 203.7 75.9 203.7 75 203.3 74.2L194.6 56 204.3 33.1C205.1 31.3 204.3 29.3 202.5 28.5" fill="#9c7945" data-fill-palette-color="accent"></path></svg></g></svg></g></svg></g><defs></defs></svg><rect width="395.5199999999999" height="96.34422076640016" fill="none" stroke="none" visibility="hidden"></rect></g></svg></g></svg>